<!-- <svg xmlns="http://www.w3.org/2000/svg" width="24" height="24" fill="none"><path fill="#000" fill-rule="evenodd" d="M21.6 5.2a1 1 0 0 1 .2 1.4l-6 8a1 1 0 0 1-1.355.232l-5.213-3.475L3.8 18.6a1 1 0 1 1-1.6-1.2l6-8a1 1 0 0 1 1.355-.232l5.213 3.475L20.2 5.4a1 1 0 0 1 1.4-.2Z" clip-rule="evenodd"/></svg> -->


<?xml version="1.0" encoding="UTF-8"?>
<svg width="47px" height="46px" viewBox="0 0 47 46" version="1.1" xmlns="http://www.w3.org/2000/svg" xmlns:xlink="http://www.w3.org/1999/xlink">
    <!-- Generator: Sketch 52.4 (67378) - http://www.bohemiancoding.com/sketch -->
    <title>graph</title>
    <desc>Created with Sketch.</desc>
    <g id="Page-1" stroke="none" stroke-width="1" fill="none" fill-rule="evenodd">
        <g id="graph" transform="translate(-1.000000, 0.000000)" fill="#111111" fill-rule="nonzero">
            <path d="M21.6 5.2a1 1 0 0 1 .2 1.4l-6 8a1 1 0 0 1-1.355.232l-5.213-3.475L3.8 18.6a1 1 0 1 1-1.6-1.2l6-8a1 1 0 0 1 1.355-.232l5.213 3.475L20.2 5.4a1 1 0 0 1 1.4-.2Z" id="Path"></path>
        </g>
    </g>
</svg>